<svg xmlns="http://www.w3.org/2000/svg" viewBox="0 0 1920 1080" width="100%" height="100%">
  <defs>
    <radialGradient id="heroGrad" cx="50%" cy="45%" r="70%">
      <stop offset="0%" stop-color="#EC6430" stop-opacity="0.45"/>
      <stop offset="35%" stop-color="#8b2510" stop-opacity="0.2"/>
      <stop offset="70%" stop-color="#140804" stop-opacity="0.85"/>
      <stop offset="100%" stop-color="#080808" stop-opacity="1"/>
    </radialGradient>
    <linearGradient id="beam1" x1="0%" y1="0%" x2="100%" y2="100%">
      <stop offset="0%" stop-color="#ffffff" stop-opacity="0.15"/>
      <stop offset="50%" stop-color="#EC6430" stop-opacity="0.05"/>
      <stop offset="100%" stop-color="#000000" stop-opacity="0"/>
    </linearGradient>
    <linearGradient id="beam2" x1="100%" y1="0%" x2="0%" y2="100%">
      <stop offset="0%" stop-color="#ffaa40" stop-opacity="0.18"/>
      <stop offset="60%" stop-color="#EC6430" stop-opacity="0.03"/>
      <stop offset="100%" stop-color="#000000" stop-opacity="0"/>
    </linearGradient>
    <pattern id="grid" width="60" height="60" patternUnits="userSpaceOnUse">
      <path d="M 60 0 L 0 0 0 60" fill="none" stroke="#ffffff" stroke-width="0.5" stroke-opacity="0.04"/>
    </pattern>
  </defs>

  <rect width="1920" height="1080" fill="#080808"/>
  <rect width="1920" height="1080" fill="url(#heroGrad)"/>
  <rect width="1920" height="1080" fill="url(#grid)"/>

  <!-- Monumental Scenographic Geometry -->
  <circle cx="960" cy="540" r="420" fill="none" stroke="#EC6430" stroke-width="1.5" stroke-opacity="0.25" stroke-dasharray="4 8"/>
  <circle cx="960" cy="540" r="320" fill="none" stroke="#ffffff" stroke-width="1" stroke-opacity="0.15"/>
  <circle cx="960" cy="540" r="160" fill="#EC6430" fill-opacity="0.08" stroke="#EC6430" stroke-width="1" stroke-opacity="0.4"/>

  <!-- Light Beams -->
  <polygon points="960,120 400,1080 1520,1080" fill="url(#beam1)"/>
  <polygon points="400,0 1200,1080 800,1080" fill="url(#beam2)"/>
  <polygon points="1520,0 720,1080 1120,1080" fill="url(#beam1)"/>

  <!-- Horizon Stage Line and Silhouettes -->
  <line x1="200" y1="780" x2="1720" y2="780" stroke="#EC6430" stroke-width="2" stroke-opacity="0.5"/>
  <path d="M 760 780 C 820 740, 880 730, 960 730 C 1040 730, 1100 740, 1160 780 Z" fill="#0e0e12" stroke="#EC6430" stroke-width="1" stroke-opacity="0.3"/>

  <!-- Floating Cinematic Typography and Metadata -->
  <text x="160" y="180" fill="#EC6430" font-family="sans-serif" font-size="14" font-weight="600" letter-spacing="6">ETERNAL STUDIO // SPATIAL ARCHITECTURE</text>
  <text x="1760" y="180" text-anchor="end" fill="#858585" font-family="monospace" font-size="12" letter-spacing="3">9°01'48"N 38°45'28"E - PAN-AFRICAN</text>
  <text x="160" y="940" fill="#ffffff" fill-opacity="0.3" font-family="monospace" font-size="12" letter-spacing="2">ATMOSPHERE // LIGHT // RITUAL // KINETICS</text>
  <text x="1760" y="940" text-anchor="end" fill="#EC6430" font-family="monospace" font-size="12" letter-spacing="4">EST. 2020 - ADDIS ABABA / NAIROBI / LONDON</text>
</svg>